<svg width="40" height="28" viewBox="0 0 40 28" fill="none" xmlns="http://www.w3.org/2000/svg">
<path d="M4 17H36L30.3144 25.31C29.4671 26.5483 28.1084 27.3407 26.6133 27.4684L20.798 27.9652C20.5266 27.9884 20.2538 27.9893 19.9822 27.9681L13.4096 27.4534C11.9014 27.3353 10.5277 26.5407 9.67338 25.2921L4 17Z" fill="#8395CD"/>
<g filter="url(#filter0_d_108_7)">
<ellipse cx="20" cy="17" rx="16" ry="2" fill="#7AD0AB"/>
</g>
<path d="M20.9919 1.08944C21.0413 0.817755 20.8611 0.557463 20.5894 0.508065C20.3178 0.458667 20.0575 0.638869 20.0081 0.910557L20.9919 1.08944ZM22 12.5L22.4743 12.6581L22.5335 12.4805L22.4615 12.3077L22 12.5ZM19.5 6.5L19.0081 6.41056L18.9816 6.55592L19.0385 6.69231L19.5 6.5ZM21.5257 12.3419L20.0257 16.8419L20.9743 17.1581L22.4743 12.6581L21.5257 12.3419ZM20.0081 0.910557L19.0081 6.41056L19.9919 6.58944L20.9919 1.08944L20.0081 0.910557ZM19.0385 6.69231L21.5385 12.6923L22.4615 12.3077L19.9615 6.30769L19.0385 6.69231Z" fill="#CCCCCC"/>
<path d="M29.4919 1.08944C29.5413 0.817755 29.3611 0.557463 29.0894 0.508065C28.8178 0.458667 28.5575 0.638869 28.5081 0.910557L29.4919 1.08944ZM30.5 12.5L30.9743 12.6581L31.0335 12.4805L30.9615 12.3077L30.5 12.5ZM28 6.5L27.5081 6.41056L27.4816 6.55592L27.5385 6.69231L28 6.5ZM30.0257 12.3419L28.5257 16.8419L29.4743 17.1581L30.9743 12.6581L30.0257 12.3419ZM28.5081 0.910557L27.5081 6.41056L28.4919 6.58944L29.4919 1.08944L28.5081 0.910557ZM27.5385 6.69231L30.0385 12.6923L30.9615 12.3077L28.4615 6.30769L27.5385 6.69231Z" fill="#CCCCCC"/>
<path d="M12.4919 1.08944C12.5413 0.817755 12.3611 0.557463 12.0894 0.508065C11.8178 0.458667 11.5575 0.638869 11.5081 0.910557L12.4919 1.08944ZM13.5 12.5L13.9743 12.6581L14.0335 12.4805L13.9615 12.3077L13.5 12.5ZM11 6.5L10.5081 6.41056L10.4816 6.55592L10.5385 6.69231L11 6.5ZM13.0257 12.3419L11.5257 16.8419L12.4743 17.1581L13.9743 12.6581L13.0257 12.3419ZM11.5081 0.910557L10.5081 6.41056L11.4919 6.58944L12.4919 1.08944L11.5081 0.910557ZM10.5385 6.69231L13.0385 12.6923L13.9615 12.3077L11.4615 6.30769L10.5385 6.69231Z" fill="#CCCCCC"/>
<defs>
<filter id="filter0_d_108_7" x="0" y="15" width="40" height="12" filterUnits="userSpaceOnUse" color-interpolation-filters="sRGB">
<feFlood flood-opacity="0" result="BackgroundImageFix"/>
<feColorMatrix in="SourceAlpha" type="matrix" values="0 0 0 0 0 0 0 0 0 0 0 0 0 0 0 0 0 0 127 0" result="hardAlpha"/>
<feOffset dy="4"/>
<feGaussianBlur stdDeviation="2"/>
<feComposite in2="hardAlpha" operator="out"/>
<feColorMatrix type="matrix" values="0 0 0 0 0 0 0 0 0 0 0 0 0 0 0 0 0 0 0.25 0"/>
<feBlend mode="normal" in2="BackgroundImageFix" result="effect1_dropShadow_108_7"/>
<feBlend mode="normal" in="SourceGraphic" in2="effect1_dropShadow_108_7" result="shape"/>
</filter>
</defs>
</svg>
