<svg viewBox="0 0 218 384" fill="none" xmlns="http://www.w3.org/2000/svg">
<path d="M176.722 292.235L176.714 292.408L185.401 384H122.013L113.797 327.747L110.18 382.558L45.0857 381.836L52.0002 309.875L57.8804 276.52V276.513L58.7628 271.493H174.993L175.145 273.311L176.722 292.235Z" fill="#AEAAFF"/>
<path d="M9.20538 345.331C15.9187 346.551 22.9188 339.012 24.8408 328.493C25.6822 323.888 25.4106 319.476 24.2765 315.867L25.3059 309.804L42.5801 228.23C42.5801 228.23 74.3899 164.782 74.3891 153.767C74.3883 142.752 65.1874 137.351 65.1874 137.351L52.7367 137.467L13.6925 232.554L6.66067 302.82L5.52304 312.461C3.18571 315.438 1.37106 319.472 0.530048 324.076C-1.39205 334.595 2.49211 344.111 9.20538 345.331V345.331Z" fill="#FFB6B6"/>
<path d="M135.857 98.0455L124.284 71.3613L86.6739 77.852L84.1425 109.247L135.857 98.0455Z" fill="#FFB6B6"/>
<path opacity="0.1" d="M135.857 98.0455L124.284 71.3613L86.6739 77.852L84.1425 109.247L135.857 98.0455Z" fill="black"/>
<path d="M217.587 153.578C217.587 153.578 190.826 103.815 185.763 98.7667C183.509 96.5193 179.966 96.4881 176.727 97.1431L139.473 84.3428L126.846 77.2684L126.014 90.7274L84.5594 98.1467C84.7896 89.9388 85.9508 86.8169 85.9508 86.8169L70.7621 104.536L41.1078 118.96L41.1241 119.09C38.9479 119.848 36.8847 121.144 35.3216 123.287C29.5354 131.221 13.6234 227.861 13.6234 227.861L47.6173 235.073L52.2437 206.124L55.5733 232.188L58.1048 280.869C58.1048 280.869 104.394 320.535 126.816 306.111C149.237 291.687 176.722 292.408 176.722 292.408L177.408 269.843C177.896 269.065 178.168 268.609 178.168 268.609L177.445 188.567V167.269C182.955 174.923 189.604 181.506 197.335 184.589C222.65 194.686 217.587 153.578 217.587 153.578V153.578Z" fill="#BC4343"/>
<path d="M101.548 82.547C120.657 82.547 136.148 67.1004 136.148 48.0461C136.148 28.9917 120.657 13.5451 101.548 13.5451C82.4387 13.5451 66.9476 28.9917 66.9476 48.0461C66.9476 67.1004 82.4387 82.547 101.548 82.547Z" fill="#FDC8C8"/>
<path d="M126.37 57.7963C126.37 57.7963 129.379 47.296 136.148 48.0461C142.918 48.7961 144.422 42.7959 142.918 39.7958C141.414 36.7957 138.405 21.7953 138.405 21.7953C138.405 21.7953 139.909 11.295 130.883 9.795C121.857 8.29496 118.848 6.79492 117.344 3.79483C115.839 0.794747 93.274 -2.20534 85.7522 2.29479C78.2303 6.79492 72.2129 15.429 66.9476 17.8622C61.6823 20.2953 57.1693 24.7954 60.178 32.2956C63.1867 39.7958 67.5502 54.4646 67.5502 54.4646C67.5502 54.4646 75.2216 51.7962 76.726 56.2963C78.2303 60.7964 72.2129 54.7962 79.7347 42.7959C87.2565 30.7956 87.2565 18.7952 99.2914 23.2954C111.326 27.7955 124.866 26.2955 123.361 35.2957C121.857 44.2959 126.37 57.7963 126.37 57.7963V57.7963Z" fill="#2F2E41"/>
<path d="M156.313 85.2026C175.777 85.2026 191.555 69.8008 191.555 50.8017C191.555 31.8026 175.777 16.4008 156.313 16.4008C136.849 16.4008 121.07 31.8026 121.07 50.8017C121.07 69.8008 136.849 85.2026 156.313 85.2026Z" fill="#7AD0AB"/>
<path d="M168.274 33.4497C163.582 41.9686 158.89 50.4875 154.198 59.0064C151.208 53.7381 148.234 48.4605 145.236 43.1963C144.201 41.3782 141.385 43.0134 142.423 44.836C145.898 50.9384 149.337 57.0611 152.812 63.1635C153.406 64.2069 155.037 64.2311 155.625 63.1635C160.779 53.8055 165.933 44.4474 171.087 35.0894C172.097 33.2557 169.285 31.6146 168.274 33.4497V33.4497Z" fill="white"/>
<path d="M204.963 141.478L169.85 124.73C169.85 124.73 168.44 113.52 161.855 109.521C160.736 106.858 159.448 103.933 158.278 101.615C155.385 95.882 159.725 85.064 156.108 85.064C152.492 85.064 147.146 96.4412 147.429 99.4879C147.646 101.827 149.585 105.91 149.985 109.484C145.575 111.143 142.018 113.985 139.679 116.248C137.655 118.207 136.903 121.129 137.694 123.829C139.986 131.652 145.716 147.808 153.938 147.808C164.788 147.808 167.681 145.645 167.681 145.645C167.681 145.645 190.102 173.771 206.737 175.935C223.373 178.098 204.963 141.478 204.963 141.478V141.478Z" fill="#FDC8C8"/>
</svg>
